# xmcd
#
# Track frame offsets: 
#        150
#        16315
#        34245
#        47122
#        71070
#        84300
#        99180
#        116607
#        134865
#        153982
#
# Disc length: 2257 seconds
#
# Revision: 13
# Processed by: cddbd v1.5.2PL0 Copyright (c) Steve Scherf et al.
# Submitted via: ExactAudioCopy v0.99pb4
#
DISCID=8108cf0a
DTITLE=Charlie Daniels Band, The - A Decade of Hits
DYEAR=1983
DGENRE=Country
TTITLE0=The Devil Went Down To Georgia
TTITLE1=The South's Gonna Do It Again
TTITLE2=Stroker's Theme
TTITLE3=Uneasy Rider
TTITLE4=Let It Roll
TTITLE5=In America
TTITLE6=Still In Saigon
TTITLE7=Long Haired Country Boy
TTITLE8=The Legend of Wooley Swamp
TTITLE9=Everytime I See Him
EXTD=MediaType: Audio CD Producer: Epic
EXTT0=
EXTT1=
EXTT2=
EXTT3=
EXTT4=
EXTT5=
EXTT6=
EXTT7=
EXTT8=
EXTT9=
PLAYORDER=
